<?xml version="1.0" encoding="UTF-8"?>
<svg xmlns="http://www.w3.org/2000/svg" xmlns:xlink="http://www.w3.org/1999/xlink" width="41px" height="40px" viewBox="0 0 40 40" version="1.1">
<g id="surface1">
<path style=" stroke:none;fill-rule:nonzero;fill:rgb(0%,0%,0%);fill-opacity:1;" d="M 14.3125 0.898438 C 14.019531 1.398438 15.195312 2.898438 17.058594 4.398438 C 21.46875 7.800781 20.980469 9.601562 13.332031 18.300781 C 10 22 5.6875 27.601562 3.628906 30.699219 L -0.0976562 36.300781 L 1.863281 38.398438 L 3.921875 40.398438 L 7.351562 37 C 9.3125 35.101562 13.824219 29.199219 17.449219 23.800781 C 23.429688 15 27.351562 11.398438 28.332031 14.101562 C 28.53125 14.699219 29.609375 16.300781 30.785156 17.699219 C 32.648438 19.898438 33.234375 20.101562 35.097656 19.101562 C 36.273438 18.5 37.941406 16.601562 38.824219 14.898438 C 40.195312 12.101562 40.195312 11.699219 38.628906 9.898438 C 37.746094 8.898438 35.6875 8 34.019531 8 C 31.960938 8 31.273438 7.601562 31.667969 6.5 C 32.449219 4.601562 26.46875 -0.199219 24.902344 1.101562 C 24.214844 1.699219 22.84375 1.699219 21.175781 1 C 17.84375 -0.199219 15 -0.300781 14.3125 0.898438 Z M 14.3125 0.898438 "/>
</g>
</svg>
